<svg width="48" height="48" viewBox="0 0 48 48" fill="none" xmlns="http://www.w3.org/2000/svg">
<path d="M28.5 19.5H37.5V22.5H28.5V19.5ZM19.5 31.5H16.5V28.5H13.5V31.5H10.5V34.5H13.5V37.5H16.5V34.5H19.5V31.5ZM10.5 13.5H19.5V16.5H10.5V13.5ZM28.5 25.5H37.5V28.5H28.5V25.5Z" fill="#54AD36"/>
<path d="M40.5 4.5H7.5C6.70435 4.5 5.94129 4.81607 5.37868 5.37868C4.81607 5.94129 4.5 6.70435 4.5 7.5V40.5C4.5 41.2957 4.81607 42.0587 5.37868 42.6213C5.94129 43.1839 6.70435 43.5 7.5 43.5H40.5C41.2957 43.5 42.0587 43.1839 42.6213 42.6213C43.1839 42.0587 43.5 41.2957 43.5 40.5V7.5C43.5 6.70435 43.1839 5.94129 42.6213 5.37868C42.0587 4.81607 41.2957 4.5 40.5 4.5ZM22.5 7.5V22.5H7.5V7.5H22.5ZM7.5 25.5H22.5V40.5H7.5V25.5ZM25.5 40.5V7.5H40.5V40.5H25.5Z" fill="#54AD36"/>
</svg>
