<svg width="48" height="48" viewBox="0 0 48 48" fill="none" xmlns="http://www.w3.org/2000/svg">
<path fill-rule="evenodd" clip-rule="evenodd" d="M22.062 25.602L11.33 5.41597C11.2683 5.30001 11.2301 5.17305 11.2175 5.04232C11.2049 4.9116 11.2182 4.77967 11.2566 4.65408C11.3341 4.40044 11.5093 4.18799 11.7434 4.06347C11.9776 3.93895 12.2517 3.91256 12.5053 3.99011C12.6309 4.02851 12.7477 4.09127 12.8491 4.1748C12.9504 4.25834 13.0343 4.36102 13.0959 4.47697L23.829 24.663L25.351 23.853C25.8148 23.6064 26.3228 23.4535 26.8457 23.4032C27.3687 23.3529 27.8964 23.4062 28.3988 23.5598C28.9011 23.7135 29.3683 23.9647 29.7736 24.2989C30.1789 24.6332 30.5144 25.044 30.761 25.508L31.409 26.726L38.278 36.781L24.0289 44.357L19.534 33.039L18.8869 31.821C18.6403 31.3571 18.4874 30.8493 18.4371 30.3264C18.3867 29.8035 18.4398 29.2758 18.5934 28.7734C18.747 28.271 18.998 27.8038 19.3322 27.3985C19.6664 26.9931 20.0771 26.6576 20.541 26.411L22.062 25.602ZM21.479 28.177L26.2889 25.62C26.5209 25.4966 26.7748 25.4202 27.0362 25.395C27.2977 25.3698 27.5616 25.3964 27.8127 25.4732C28.0639 25.55 28.2975 25.6755 28.5002 25.8426C28.7029 26.0097 28.8707 26.215 28.9939 26.447L29.642 27.664L21.299 32.1L20.652 30.882C20.5286 30.6501 20.4522 30.3961 20.427 30.1347C20.4018 29.8732 20.4284 29.6094 20.5052 29.3582C20.582 29.107 20.7075 28.8734 20.8746 28.6707C21.0417 28.468 21.247 28.3003 21.479 28.177ZM22.309 34.609L25.062 41.542L26.896 40.567L24.731 36.352L26.511 35.438L28.663 39.628L35.365 36.064L31.1569 29.904L22.309 34.609Z" fill="#54AD36"/>
<path d="M16.36 35.231C16.4609 35.1469 16.5774 35.0836 16.7028 35.0446C16.8282 35.0055 16.9601 34.9916 17.0909 35.0035C17.2217 35.0155 17.3488 35.053 17.4651 35.1141C17.5814 35.1752 17.6845 35.2586 17.7685 35.3595C17.8525 35.4604 17.9159 35.5769 17.9549 35.7023C17.9939 35.8277 18.0079 35.9596 17.996 36.0903C17.984 36.2211 17.9465 36.3483 17.8854 36.4646C17.8243 36.5808 17.7409 36.6839 17.64 36.768L17.639 36.769L17.637 36.771L17.634 36.773L17.624 36.781L17.594 36.806L17.491 36.885C17.4037 36.9517 17.2813 37.0383 17.124 37.145C16.809 37.355 16.354 37.629 15.78 37.903C14.2878 38.6189 12.655 38.9936 11 39C10.7348 39 10.4804 38.8946 10.2929 38.7071C10.1054 38.5196 10 38.2652 10 38C10 37.7348 10.1054 37.4804 10.2929 37.2929C10.4804 37.1053 10.7348 37 11 37C12.3575 36.9935 13.6965 36.685 14.92 36.097C15.2986 35.917 15.6641 35.7109 16.014 35.48C16.1291 35.4039 16.2415 35.3238 16.351 35.24L16.361 35.23L16.36 35.231ZM19.555 41.832C19.7757 41.6848 19.9288 41.456 19.9808 41.1959C20.0327 40.9357 19.9792 40.6656 19.832 40.445C19.6848 40.2243 19.456 40.0712 19.1959 40.0192C18.9358 39.9673 18.6657 40.0208 18.445 40.168L18.443 40.17L18.423 40.182L18.337 40.237C18.2577 40.287 18.1413 40.356 17.988 40.444C17.5758 40.6794 17.1519 40.8937 16.718 41.086C15.65 41.561 14.299 42 13 42C12.7348 42 12.4804 42.1053 12.2929 42.2929C12.1054 42.4804 12 42.7348 12 43C12 43.2652 12.1054 43.5196 12.2929 43.7071C12.4804 43.8946 12.7348 44 13 44C14.702 44 16.35 43.439 17.531 42.914C18.1728 42.6289 18.7952 42.3019 19.394 41.935L19.508 41.863L19.54 41.842L19.55 41.836L19.555 41.832Z" fill="#54AD36"/>
</svg>
