<svg width="48" height="48" viewBox="0 0 48 48" fill="none" xmlns="http://www.w3.org/2000/svg">
<path d="M32.3998 31.2C32.0815 31.2 31.7763 31.3264 31.5513 31.5514C31.3262 31.7765 31.1998 32.0817 31.1998 32.4C31.1998 32.7182 31.3262 33.0235 31.5513 33.2485C31.7763 33.4735 32.0815 33.6 32.3998 33.6H37.1998C37.5181 33.6 37.8233 33.4735 38.0483 33.2485C38.2734 33.0235 38.3998 32.7182 38.3998 32.4C38.3998 32.0817 38.2734 31.7765 38.0483 31.5514C37.8233 31.3264 37.5181 31.2 37.1998 31.2H32.3998ZM4.7998 16.2C4.7998 14.4495 5.49516 12.7708 6.7329 11.5331C7.97064 10.2953 9.64938 9.59998 11.3998 9.59998H36.5998C38.3502 9.59998 40.029 10.2953 41.2667 11.5331C42.5045 12.7708 43.1998 14.4495 43.1998 16.2V31.8C43.1998 33.5504 42.5045 35.2291 41.2667 36.4669C40.029 37.7046 38.3502 38.4 36.5998 38.4H11.3998C9.64938 38.4 7.97064 37.7046 6.7329 36.4669C5.49516 35.2291 4.7998 33.5504 4.7998 31.8V16.2ZM11.3998 12C10.2859 12 9.21761 12.4425 8.42996 13.2301C7.6423 14.0178 7.1998 15.0861 7.1998 16.2V19.2H40.7998V16.2C40.7998 15.0861 40.3573 14.0178 39.5697 13.2301C38.782 12.4425 37.7137 12 36.5998 12H11.3998ZM40.7998 21.6H7.1998V31.8C7.1998 34.1184 9.0814 36 11.3998 36H36.5998C37.7137 36 38.782 35.5575 39.5697 34.7698C40.3573 33.9822 40.7998 32.9139 40.7998 31.8V21.6Z" fill="#54AD36"/>
</svg>
