<svg width="48" height="48" viewBox="0 0 48 48" fill="none" xmlns="http://www.w3.org/2000/svg">
<path d="M45 42C45 37.5495 41.7495 33.8535 37.5 33.135V31.5H39V28.5H33V31.5H34.5V33.135C30.2505 33.8535 27 37.5495 27 42H25.5V45H46.5V42H45ZM30 42C30 38.691 32.691 36 36 36C39.309 36 42 38.691 42 42H30Z" fill="#54AD36"/>
<path d="M21 42H13.5V12H34.5V24H37.5V6C37.5 4.3455 36.1545 3 34.5 3H13.5C11.8455 3 10.5 4.3455 10.5 6V42C10.5 43.6545 11.8455 45 13.5 45H21V42ZM13.5 6H34.5V9H13.5V6Z" fill="#54AD36"/>
</svg>
