<svg width="49" height="48" viewBox="0 0 49 48" fill="none" xmlns="http://www.w3.org/2000/svg">
<path d="M9.95573 32.274C6.86573 29.182 5.31973 27.638 4.74573 25.632C4.16973 23.626 4.66173 21.496 5.64573 17.238L6.21173 14.782C7.03773 11.198 7.45173 9.406 8.67773 8.178C9.90373 6.95 11.6977 6.538 15.2817 5.712L17.7377 5.144C21.9977 4.162 24.1257 3.67 26.1317 4.244C28.1377 4.82 29.6817 6.366 32.7717 9.456L36.4317 13.116C41.8137 18.496 44.4997 21.184 44.4997 24.524C44.4997 27.866 41.8117 30.554 36.4337 35.932C31.0537 41.312 28.3657 44 25.0237 44C21.6837 44 18.9937 41.312 13.6157 35.934L9.95573 32.274Z" stroke="#54AD36" stroke-width="1.5"/>
<path d="M31.2788 30.78C32.4488 29.606 32.6068 27.866 31.6308 26.888C30.6548 25.91 28.9128 26.07 27.7408 27.242C26.5708 28.414 24.8288 28.572 23.8528 27.596C22.8768 26.62 23.0348 24.878 24.2068 23.708M24.2068 23.708L23.4988 23M24.2068 23.708C24.8688 23.044 25.7128 22.708 26.4988 22.714M31.9848 31.486L31.2768 30.778C30.4768 31.58 29.4068 31.908 28.4988 31.72" stroke="#54AD36" stroke-width="1.5" stroke-linecap="round"/>
<path d="M20.5419 20.5864C22.104 19.0243 22.104 16.4917 20.5419 14.9296C18.9798 13.3675 16.4472 13.3675 14.8851 14.9296C13.323 16.4917 13.323 19.0243 14.8851 20.5864C16.4472 22.1485 18.9798 22.1485 20.5419 20.5864Z" stroke="#54AD36" stroke-width="1.5"/>
</svg>
