<svg width="49" height="48" viewBox="0 0 49 48" fill="none" xmlns="http://www.w3.org/2000/svg">
<path d="M24.04 40V38H37.27C37.6033 38 37.8913 37.8973 38.134 37.692C38.378 37.4867 38.5 37.2173 38.5 36.884V23.108C38.5 19.3613 37.1227 16.2327 34.368 13.722C31.612 11.21 28.3227 9.954 24.5 9.954C20.6773 9.954 17.388 11.21 14.632 13.722C11.8773 16.2327 10.5 19.3613 10.5 23.108V34.462H9.5C8.68267 34.462 7.978 34.1853 7.386 33.632C6.79533 33.08 6.5 32.396 6.5 31.58V27.81C6.5 27.2127 6.694 26.6827 7.082 26.22C7.47133 25.756 7.944 25.3793 8.5 25.09L8.534 22.632C8.59533 20.5453 9.068 18.612 9.952 16.832C10.836 15.052 11.9987 13.5027 13.44 12.184C14.8813 10.8653 16.5573 9.83867 18.468 9.104C20.3787 8.36934 22.3893 8.00134 24.5 8C26.6107 7.99867 28.62 8.36667 30.528 9.104C32.432 9.84 34.1073 10.8653 35.554 12.18C37.0007 13.4933 38.1633 15.04 39.042 16.82C39.922 18.5987 40.3967 20.532 40.466 22.62L40.5 25.026C41.0307 25.2753 41.4967 25.6107 41.898 26.032C42.2993 26.452 42.5 26.9567 42.5 27.546V31.878C42.5 32.4673 42.2993 32.972 41.898 33.392C41.4967 33.812 41.0307 34.1467 40.5 34.396V36.884C40.5 37.7533 40.1853 38.49 39.556 39.094C38.9267 39.698 38.1647 40 37.27 40H24.04ZM19.27 27.078C18.8567 27.078 18.4967 26.9373 18.19 26.656C17.8833 26.376 17.73 26.0293 17.73 25.616C17.73 25.2027 17.8833 24.8493 18.19 24.556C18.4967 24.2627 18.8567 24.116 19.27 24.116C19.6833 24.116 20.0427 24.2627 20.348 24.556C20.6533 24.8493 20.8067 25.2027 20.808 25.616C20.8093 26.0293 20.656 26.376 20.348 26.656C20.04 26.936 19.68 27.076 19.268 27.076M29.732 27.076C29.3187 27.076 28.9587 26.936 28.652 26.656C28.3453 26.376 28.192 26.0293 28.192 25.616C28.192 25.2027 28.3453 24.8493 28.652 24.556C28.9587 24.2627 29.3187 24.116 29.732 24.116C30.1453 24.116 30.5047 24.2627 30.81 24.556C31.1153 24.8493 31.2687 25.2027 31.27 25.616C31.2713 26.0293 31.118 26.376 30.81 26.656C30.502 26.936 30.142 27.076 29.73 27.076M13.936 23.9C13.7547 20.9053 14.7193 18.3527 16.83 16.242C18.9393 14.1313 21.53 13.076 24.602 13.076C27.1833 13.076 29.4713 13.8513 31.466 15.402C33.4607 16.9527 34.678 18.9893 35.118 21.512C32.4687 21.4787 30.01 20.8027 27.742 19.484C25.474 18.1653 23.734 16.332 22.522 13.984C22.0393 16.292 21.036 18.3147 19.512 20.052C17.9867 21.7893 16.128 23.072 13.936 23.9Z" fill="#54AD36"/>
</svg>
