<svg width="24" height="24" viewBox="0 0 24 24" fill="none" xmlns="http://www.w3.org/2000/svg">
<path d="M12.459 1.66059C12.3259 1.55684 12.162 1.50049 11.9932 1.50049C11.8245 1.50049 11.6606 1.55684 11.5275 1.66059L0.75 10.0643L1.68225 11.2433L3 10.2158V19.5001C3.00079 19.8977 3.15908 20.2787 3.44022 20.5599C3.72135 20.841 4.10242 20.9993 4.5 21.0001H19.5C19.8976 20.9993 20.2787 20.841 20.5598 20.5599C20.8409 20.2787 20.9992 19.8977 21 19.5001V10.2226L22.3177 11.2501L23.25 10.0711L12.459 1.66059ZM13.5 19.5001H10.5V13.5001H13.5V19.5001ZM15 19.5001V13.5001C15 13.1023 14.842 12.7207 14.5607 12.4394C14.2794 12.1581 13.8978 12.0001 13.5 12.0001H10.5C10.1022 12.0001 9.72064 12.1581 9.43934 12.4394C9.15804 12.7207 9 13.1023 9 13.5001V19.5001H4.5V9.04659L12 3.20409L19.5 9.05409V19.5001H15Z" fill="#54AD36"/>
</svg>
