<svg width="24" height="24" viewBox="0 0 24 24" fill="none" xmlns="http://www.w3.org/2000/svg">
<path d="M8 13.885C7.79333 13.885 7.61333 13.8084 7.46 13.655C7.30667 13.5017 7.23 13.3217 7.23 13.115C7.23 12.9084 7.30667 12.7287 7.46 12.576C7.61333 12.4234 7.79333 12.3467 8 12.346C8.20667 12.3454 8.38667 12.422 8.54 12.576C8.69333 12.73 8.77 12.91 8.77 13.116C8.77 13.322 8.69333 13.5017 8.54 13.655C8.38667 13.8084 8.20667 13.885 8 13.885ZM12 13.885C11.7933 13.885 11.6133 13.8084 11.46 13.655C11.3067 13.5017 11.23 13.3217 11.23 13.115C11.23 12.9084 11.3067 12.7287 11.46 12.576C11.6133 12.4234 11.7933 12.3467 12 12.346C12.2067 12.3454 12.3867 12.422 12.54 12.576C12.6933 12.73 12.77 12.91 12.77 13.116C12.77 13.322 12.6933 13.5017 12.54 13.655C12.3867 13.8084 12.2067 13.885 12 13.885ZM16 13.885C15.7933 13.885 15.6133 13.8084 15.46 13.655C15.3067 13.5017 15.23 13.3217 15.23 13.115C15.23 12.9084 15.3067 12.7287 15.46 12.576C15.6133 12.4234 15.7933 12.3467 16 12.346C16.2067 12.3454 16.3867 12.422 16.54 12.576C16.6933 12.73 16.77 12.91 16.77 13.116C16.77 13.322 16.6933 13.5017 16.54 13.655C16.3867 13.8084 16.2067 13.885 16 13.885ZM4 21V5.00002H7.385V2.77002H8.462V5.00002H15.616V2.77002H16.616V5.00002H20V21H4ZM5 20H19V10.616H5V20Z" fill="#54AD36"/>
</svg>
