<svg width="136" height="24" viewBox="0 0 136 24" fill="none" xmlns="http://www.w3.org/2000/svg">
<path d="M12.86 10.44L11 6.06L9.13996 10.45L4.38996 10.86L7.99996 14L6.91996 18.63L11 16.17L15.09 18.63L14 14L17.61 10.86L12.86 10.44ZM16.59 20.7L11 17.34L5.41996 20.7L6.87996 14.35L1.95996 10.07L8.44996 9.5L11 3.5L13.55 9.5L20.04 10.07L15.12 14.34L16.59 20.7Z" fill="#F3D000"/>
<path d="M4 10.5L9 10L11 5.5L13 10L18 10.5L14 14L15.5 19L11 16.5L6.5 19L7.5 14L4 10.5Z" fill="#F3D000"/>
<path d="M40.86 10.44L39 6.06L37.14 10.45L32.39 10.86L36 14L34.92 18.63L39 16.17L43.09 18.63L42 14L45.61 10.86L40.86 10.44ZM44.59 20.7L39 17.34L33.42 20.7L34.88 14.35L29.96 10.07L36.45 9.5L39 3.5L41.55 9.5L48.04 10.07L43.12 14.34L44.59 20.7Z" fill="#F3D000"/>
<path d="M32 10.5L37 10L39 5.5L41 10L46 10.5L42 14L43.5 19L39 16.5L34.5 19L35.5 14L32 10.5Z" fill="#F3D000"/>
<path d="M68.86 10.44L67 6.06L65.14 10.45L60.39 10.86L64 14L62.92 18.63L67 16.17L71.09 18.63L70 14L73.61 10.86L68.86 10.44ZM72.59 20.7L67 17.34L61.42 20.7L62.88 14.35L57.96 10.07L64.45 9.5L67 3.5L69.55 9.5L76.04 10.07L71.12 14.34L72.59 20.7Z" fill="#F3D000"/>
<path d="M60 10.5L65 10L67 5.5L69 10L74 10.5L70 14L71.5 19L67 16.5L62.5 19L63.5 14L60 10.5Z" fill="#F3D000"/>
<path d="M96.86 10.44L95 6.06L93.14 10.45L88.39 10.86L92 14L90.92 18.63L95 16.17L99.09 18.63L98 14L101.61 10.86L96.86 10.44ZM100.59 20.7L95 17.34L89.42 20.7L90.88 14.35L85.96 10.07L92.45 9.5L95 3.5L97.55 9.5L104.04 10.07L99.12 14.34L100.59 20.7Z" fill="#F3D000"/>
<path d="M88 10.5L93 10L95 5.5L97 10L102 10.5L98 14L99.5 19L95 16.5L90.5 19L91.5 14L88 10.5Z" fill="#F3D000"/>
<path d="M124.86 10.44L123 6.06L121.14 10.45L116.39 10.86L120 14L118.92 18.63L123 16.17L127.09 18.63L126 14L129.61 10.86L124.86 10.44ZM128.59 20.7L123 17.34L117.42 20.7L118.88 14.35L113.96 10.07L120.45 9.5L123 3.5L125.55 9.5L132.04 10.07L127.12 14.34L128.59 20.7Z" fill="#F3D000"/>
<path d="M116 10.5L121 10L123 5.5L125 10L130 10.5L126 14L127.5 19L123 16.5L118.5 19L119.5 14L116 10.5Z" fill="#F3D000"/>
</svg>
