<svg width="316" height="48" viewBox="0 0 316 48" fill="none" xmlns="http://www.w3.org/2000/svg">
<g clip-path="url(#clip0_2135_1929)">
<path d="M32.7979 4.88403H16.8779L0.837891 20.92H5.38789L19.1519 7.16003L32.9139 20.922H48.8379L32.7979 4.88603M31.8139 23.582L19.1519 10.918L8.85789 21.21V31.184C8.85842 31.8888 9.13863 32.5646 9.63699 33.0629C10.1353 33.5613 10.8111 33.8415 11.5159 33.842H23.6699L32.9439 43.116V33.842H38.1399C38.8454 33.842 39.5219 33.5618 40.0208 33.0629C40.5196 32.5641 40.7999 31.8875 40.7999 31.182V23.58H31.8119L31.8139 23.582Z" fill="black"/>
</g>
<path d="M94.9824 20.7891V23.8555H79.5918V20.7891H94.9824ZM80.1777 8.5625V37H76.4082V8.5625H80.1777ZM98.2637 8.5625V37H94.5137V8.5625H98.2637ZM103.459 26.668V26.2188C103.459 24.6953 103.68 23.2826 104.123 21.9805C104.566 20.6654 105.204 19.526 106.037 18.5625C106.87 17.5859 107.88 16.8307 109.064 16.2969C110.249 15.75 111.577 15.4766 113.049 15.4766C114.533 15.4766 115.868 15.75 117.053 16.2969C118.251 16.8307 119.266 17.5859 120.1 18.5625C120.946 19.526 121.59 20.6654 122.033 21.9805C122.476 23.2826 122.697 24.6953 122.697 26.2188V26.668C122.697 28.1914 122.476 29.6042 122.033 30.9062C121.59 32.2083 120.946 33.3477 120.1 34.3242C119.266 35.2878 118.257 36.043 117.072 36.5898C115.9 37.1237 114.572 37.3906 113.088 37.3906C111.604 37.3906 110.269 37.1237 109.084 36.5898C107.899 36.043 106.883 35.2878 106.037 34.3242C105.204 33.3477 104.566 32.2083 104.123 30.9062C103.68 29.6042 103.459 28.1914 103.459 26.668ZM107.072 26.2188V26.668C107.072 27.7227 107.196 28.7188 107.443 29.6562C107.691 30.5807 108.062 31.401 108.557 32.1172C109.064 32.8333 109.696 33.3997 110.451 33.8164C111.206 34.2201 112.085 34.4219 113.088 34.4219C114.077 34.4219 114.943 34.2201 115.686 33.8164C116.441 33.3997 117.066 32.8333 117.561 32.1172C118.055 31.401 118.426 30.5807 118.674 29.6562C118.934 28.7188 119.064 27.7227 119.064 26.668V26.2188C119.064 25.1771 118.934 24.194 118.674 23.2695C118.426 22.332 118.049 21.5052 117.541 20.7891C117.046 20.0599 116.421 19.487 115.666 19.0703C114.924 18.6536 114.051 18.4453 113.049 18.4453C112.059 18.4453 111.187 18.6536 110.432 19.0703C109.689 19.487 109.064 20.0599 108.557 20.7891C108.062 21.5052 107.691 22.332 107.443 23.2695C107.196 24.194 107.072 25.1771 107.072 26.2188ZM130.822 20.0664V37H127.189V15.8672H130.627L130.822 20.0664ZM130.08 25.6328L128.4 25.5742C128.413 24.1289 128.602 22.7943 128.967 21.5703C129.331 20.3333 129.872 19.2591 130.588 18.3477C131.304 17.4362 132.196 16.7331 133.264 16.2383C134.331 15.7305 135.568 15.4766 136.975 15.4766C137.964 15.4766 138.876 15.6198 139.709 15.9062C140.542 16.1797 141.265 16.6159 141.877 17.2148C142.489 17.8138 142.964 18.582 143.303 19.5195C143.641 20.457 143.811 21.5898 143.811 22.918V37H140.197V23.0938C140.197 21.987 140.008 21.1016 139.631 20.4375C139.266 19.7734 138.745 19.2917 138.068 18.9922C137.391 18.6797 136.597 18.5234 135.686 18.5234C134.618 18.5234 133.726 18.7122 133.01 19.0898C132.294 19.4674 131.721 19.9883 131.291 20.6523C130.861 21.3164 130.549 22.0781 130.354 22.9375C130.171 23.7839 130.08 24.6823 130.08 25.6328ZM143.771 23.6406L141.35 24.3828C141.363 23.224 141.551 22.1107 141.916 21.043C142.294 19.9753 142.834 19.0247 143.537 18.1914C144.253 17.3581 145.132 16.7005 146.174 16.2188C147.215 15.724 148.407 15.4766 149.748 15.4766C150.881 15.4766 151.883 15.6263 152.756 15.9258C153.641 16.2253 154.383 16.6875 154.982 17.3125C155.594 17.9245 156.057 18.7122 156.369 19.6758C156.682 20.6393 156.838 21.7852 156.838 23.1133V37H153.205V23.0742C153.205 21.8893 153.016 20.9714 152.639 20.3203C152.274 19.6562 151.753 19.194 151.076 18.9336C150.412 18.6602 149.618 18.5234 148.693 18.5234C147.899 18.5234 147.196 18.6602 146.584 18.9336C145.972 19.207 145.458 19.5846 145.041 20.0664C144.624 20.5352 144.305 21.0755 144.084 21.6875C143.876 22.2995 143.771 22.9505 143.771 23.6406ZM171.076 37.3906C169.605 37.3906 168.27 37.1432 167.072 36.6484C165.887 36.1406 164.865 35.431 164.006 34.5195C163.16 33.6081 162.508 32.5273 162.053 31.2773C161.597 30.0273 161.369 28.6602 161.369 27.1758V26.3555C161.369 24.6367 161.623 23.1068 162.131 21.7656C162.639 20.4115 163.329 19.2656 164.201 18.3281C165.074 17.3906 166.063 16.681 167.17 16.1992C168.277 15.7174 169.423 15.4766 170.607 15.4766C172.118 15.4766 173.42 15.737 174.514 16.2578C175.62 16.7786 176.525 17.5078 177.229 18.4453C177.932 19.3698 178.452 20.4635 178.791 21.7266C179.13 22.9766 179.299 24.3438 179.299 25.8281V27.4492H163.518V24.5H175.686V24.2266C175.633 23.2891 175.438 22.3776 175.1 21.4922C174.774 20.6068 174.253 19.8776 173.537 19.3047C172.821 18.7318 171.844 18.4453 170.607 18.4453C169.787 18.4453 169.032 18.6211 168.342 18.9727C167.652 19.3112 167.059 19.819 166.564 20.4961C166.07 21.1732 165.686 22 165.412 22.9766C165.139 23.9531 165.002 25.0794 165.002 26.3555V27.1758C165.002 28.1784 165.139 29.1224 165.412 30.0078C165.699 30.8802 166.109 31.6484 166.643 32.3125C167.189 32.9766 167.847 33.4974 168.615 33.875C169.396 34.2526 170.282 34.4414 171.271 34.4414C172.548 34.4414 173.628 34.181 174.514 33.6602C175.399 33.1393 176.174 32.4427 176.838 31.5703L179.025 33.3086C178.57 33.9987 177.99 34.6562 177.287 35.2812C176.584 35.9062 175.718 36.4141 174.689 36.8047C173.674 37.1953 172.469 37.3906 171.076 37.3906Z" fill="#757575"/>
<path d="M194.592 11.082L185.178 37H181.33L192.17 8.5625H194.65L194.592 11.082ZM202.482 37L193.049 11.082L192.99 8.5625H195.471L206.35 37H202.482ZM201.994 26.4727V29.5586H186.018V26.4727H201.994ZM222.932 32.8984V7H226.564V37H223.244L222.932 32.8984ZM208.713 26.668V26.2578C208.713 24.6432 208.908 23.1784 209.299 21.8633C209.702 20.5352 210.269 19.3958 210.998 18.4453C211.74 17.4948 212.619 16.7656 213.635 16.2578C214.663 15.737 215.809 15.4766 217.072 15.4766C218.4 15.4766 219.559 15.7109 220.549 16.1797C221.551 16.6354 222.398 17.306 223.088 18.1914C223.791 19.0638 224.344 20.1185 224.748 21.3555C225.152 22.5924 225.432 23.9922 225.588 25.5547V27.3516C225.445 28.901 225.165 30.2943 224.748 31.5312C224.344 32.7682 223.791 33.8229 223.088 34.6953C222.398 35.5677 221.551 36.2383 220.549 36.707C219.546 37.1628 218.374 37.3906 217.033 37.3906C215.796 37.3906 214.663 37.1237 213.635 36.5898C212.619 36.056 211.74 35.3073 210.998 34.3438C210.269 33.3802 209.702 32.2474 209.299 30.9453C208.908 29.6302 208.713 28.2044 208.713 26.668ZM212.346 26.2578V26.668C212.346 27.7227 212.45 28.7122 212.658 29.6367C212.88 30.5612 213.218 31.375 213.674 32.0781C214.13 32.7812 214.709 33.3346 215.412 33.7383C216.115 34.1289 216.955 34.3242 217.932 34.3242C219.13 34.3242 220.113 34.0703 220.881 33.5625C221.662 33.0547 222.287 32.3841 222.756 31.5508C223.225 30.7174 223.589 29.8125 223.85 28.8359V24.1289C223.693 23.4128 223.465 22.7227 223.166 22.0586C222.88 21.3815 222.502 20.7826 222.033 20.2617C221.577 19.7279 221.011 19.3047 220.334 18.9922C219.67 18.6797 218.882 18.5234 217.971 18.5234C216.981 18.5234 216.128 18.7318 215.412 19.1484C214.709 19.5521 214.13 20.112 213.674 20.8281C213.218 21.5312 212.88 22.3516 212.658 23.2891C212.45 24.2135 212.346 25.2031 212.346 26.2578ZM238.615 33.7383L244.396 15.8672H248.088L240.49 37H238.068L238.615 33.7383ZM233.791 15.8672L239.748 33.8359L240.158 37H237.736L230.08 15.8672H233.791ZM255.49 15.8672V37H251.857V15.8672H255.49ZM251.584 10.2617C251.584 9.67578 251.76 9.18099 252.111 8.77734C252.476 8.3737 253.01 8.17188 253.713 8.17188C254.403 8.17188 254.93 8.3737 255.295 8.77734C255.673 9.18099 255.861 9.67578 255.861 10.2617C255.861 10.8216 255.673 11.3034 255.295 11.707C254.93 12.0977 254.403 12.293 253.713 12.293C253.01 12.293 252.476 12.0977 252.111 11.707C251.76 11.3034 251.584 10.8216 251.584 10.2617ZM273.596 31.3945C273.596 30.8737 273.479 30.3919 273.244 29.9492C273.023 29.4935 272.561 29.0833 271.857 28.7188C271.167 28.3411 270.126 28.0156 268.732 27.7422C267.561 27.4948 266.499 27.2018 265.549 26.8633C264.611 26.5247 263.811 26.1146 263.146 25.6328C262.495 25.151 261.994 24.5846 261.643 23.9336C261.291 23.2826 261.115 22.5208 261.115 21.6484C261.115 20.8151 261.298 20.0273 261.662 19.2852C262.04 18.543 262.567 17.8854 263.244 17.3125C263.934 16.7396 264.761 16.2904 265.725 15.9648C266.688 15.6393 267.762 15.4766 268.947 15.4766C270.64 15.4766 272.085 15.776 273.283 16.375C274.481 16.974 275.399 17.7747 276.037 18.7773C276.675 19.7669 276.994 20.8672 276.994 22.0781H273.381C273.381 21.4922 273.205 20.9258 272.854 20.3789C272.515 19.819 272.014 19.3568 271.35 18.9922C270.699 18.6276 269.898 18.4453 268.947 18.4453C267.945 18.4453 267.131 18.6016 266.506 18.9141C265.894 19.2135 265.445 19.5977 265.158 20.0664C264.885 20.5352 264.748 21.0299 264.748 21.5508C264.748 21.9414 264.813 22.293 264.943 22.6055C265.087 22.9049 265.334 23.1849 265.686 23.4453C266.037 23.6927 266.532 23.9271 267.17 24.1484C267.808 24.3698 268.622 24.5911 269.611 24.8125C271.343 25.2031 272.769 25.6719 273.889 26.2188C275.008 26.7656 275.842 27.4362 276.389 28.2305C276.936 29.0247 277.209 29.9883 277.209 31.1211C277.209 32.0456 277.014 32.8919 276.623 33.6602C276.245 34.4284 275.692 35.0924 274.963 35.6523C274.247 36.1992 273.387 36.6289 272.385 36.9414C271.395 37.2409 270.282 37.3906 269.045 37.3906C267.183 37.3906 265.607 37.0586 264.318 36.3945C263.029 35.7305 262.053 34.8711 261.389 33.8164C260.725 32.7617 260.393 31.6484 260.393 30.4766H264.025C264.077 31.4661 264.364 32.2539 264.885 32.8398C265.406 33.4128 266.044 33.8229 266.799 34.0703C267.554 34.3047 268.303 34.4219 269.045 34.4219C270.035 34.4219 270.861 34.2917 271.525 34.0312C272.202 33.7708 272.717 33.4128 273.068 32.957C273.42 32.5013 273.596 31.9805 273.596 31.3945ZM280.998 26.668V26.2188C280.998 24.6953 281.219 23.2826 281.662 21.9805C282.105 20.6654 282.743 19.526 283.576 18.5625C284.41 17.5859 285.419 16.8307 286.604 16.2969C287.788 15.75 289.117 15.4766 290.588 15.4766C292.072 15.4766 293.407 15.75 294.592 16.2969C295.79 16.8307 296.805 17.5859 297.639 18.5625C298.485 19.526 299.13 20.6654 299.572 21.9805C300.015 23.2826 300.236 24.6953 300.236 26.2188V26.668C300.236 28.1914 300.015 29.6042 299.572 30.9062C299.13 32.2083 298.485 33.3477 297.639 34.3242C296.805 35.2878 295.796 36.043 294.611 36.5898C293.439 37.1237 292.111 37.3906 290.627 37.3906C289.143 37.3906 287.808 37.1237 286.623 36.5898C285.438 36.043 284.423 35.2878 283.576 34.3242C282.743 33.3477 282.105 32.2083 281.662 30.9062C281.219 29.6042 280.998 28.1914 280.998 26.668ZM284.611 26.2188V26.668C284.611 27.7227 284.735 28.7188 284.982 29.6562C285.23 30.5807 285.601 31.401 286.096 32.1172C286.604 32.8333 287.235 33.3997 287.99 33.8164C288.745 34.2201 289.624 34.4219 290.627 34.4219C291.617 34.4219 292.482 34.2201 293.225 33.8164C293.98 33.3997 294.605 32.8333 295.1 32.1172C295.594 31.401 295.965 30.5807 296.213 29.6562C296.473 28.7188 296.604 27.7227 296.604 26.668V26.2188C296.604 25.1771 296.473 24.194 296.213 23.2695C295.965 22.332 295.588 21.5052 295.08 20.7891C294.585 20.0599 293.96 19.487 293.205 19.0703C292.463 18.6536 291.59 18.4453 290.588 18.4453C289.598 18.4453 288.726 18.6536 287.971 19.0703C287.229 19.487 286.604 20.0599 286.096 20.7891C285.601 21.5052 285.23 22.332 284.982 23.2695C284.735 24.194 284.611 25.1771 284.611 26.2188ZM308.381 19.1875V37H304.768V15.8672H308.283L308.381 19.1875ZM314.982 15.75L314.963 19.1094C314.663 19.0443 314.377 19.0052 314.104 18.9922C313.843 18.9661 313.544 18.9531 313.205 18.9531C312.372 18.9531 311.636 19.0833 310.998 19.3438C310.36 19.6042 309.82 19.9688 309.377 20.4375C308.934 20.9062 308.583 21.4661 308.322 22.1172C308.075 22.7552 307.912 23.4583 307.834 24.2266L306.818 24.8125C306.818 23.5365 306.942 22.3385 307.189 21.2188C307.45 20.099 307.847 19.1094 308.381 18.25C308.915 17.3776 309.592 16.7005 310.412 16.2188C311.245 15.724 312.235 15.4766 313.381 15.4766C313.641 15.4766 313.941 15.5091 314.279 15.5742C314.618 15.6263 314.852 15.6849 314.982 15.75Z" fill="black"/>
<defs>
<clipPath id="clip0_2135_1929">
<rect width="48" height="48" fill="white" transform="translate(0.837891)"/>
</clipPath>
</defs>
</svg>
