<svg width="97" height="48" viewBox="0 0 97 48" fill="none" xmlns="http://www.w3.org/2000/svg">
<path d="M92.1063 23.7601L91.3063 23.9761C90.5463 21.3841 89.2703 20.2737 87.4703 20.2737C86.2063 20.2737 85.3103 21.1057 85.3103 22.4337C85.3103 23.6977 86.3503 24.3777 89.1775 25.5193C91.7799 26.4761 92.8591 27.6473 92.8591 29.6953C92.8591 32.8113 90.4111 34.7657 86.3903 34.7657C84.4567 34.7657 82.2663 34.3337 81.0319 33.8401L80.8775 29.5105L81.6375 29.3561C82.7791 32.3185 84.2399 33.4393 86.1415 33.4393C87.7871 33.4393 88.6511 32.2977 88.6511 31.1249C88.6511 29.9521 87.9823 29.2737 85.4111 28.3489C82.9631 27.5465 81.2871 26.4977 81.2871 23.8953C81.2871 21.3353 83.5391 19.1641 87.3671 19.1641C89.1775 19.1641 90.8231 19.4729 91.9031 19.9665L92.1063 23.7601ZM75.5463 25.1177C75.6391 23.0817 75.2263 20.1401 73.5511 20.1401C71.8335 20.1401 70.8871 22.8865 70.8567 25.2417L75.5463 25.1177ZM73.9623 19.1529C78.1783 19.1529 80.2151 22.2385 80.2463 26.2905H70.7551C70.7231 29.8801 72.6271 32.5945 76.1855 32.5945C77.7375 32.5945 78.6335 32.1625 79.5791 31.4841L80.0215 31.9777C78.9815 33.3969 76.8215 34.7537 73.9415 34.7537C69.3135 34.7537 66.1047 31.5761 66.1047 27.0913C66.0943 23.0393 68.7271 19.1513 73.9623 19.1513M60.2839 26.6593C60.1911 23.4593 59.0199 20.9105 56.7663 20.9105C56.2303 20.9105 55.8199 21.0033 55.1823 21.2193L55.3663 33.5505C55.5927 33.6433 56.1263 33.7049 56.5079 33.7049C58.6983 33.7049 60.2823 30.6089 60.2823 26.6601M64.9823 26.4201C64.9823 31.4905 61.7823 34.7609 56.3535 34.7609C54.4199 34.7609 52.4143 34.4521 50.6767 34.0513C50.8311 32.0153 50.8311 19.4057 50.6767 17.0297C50.5223 15.7953 50.1727 15.2089 49.2159 15.0857L48.5783 15.0241V14.4585L55.2743 13.2241C55.2423 14.2641 55.1815 17.0297 55.1815 20.2689C56.3543 19.6825 57.4335 19.3433 58.8935 19.3433C62.3799 19.3433 64.9735 22.3057 64.9735 26.4193M47.9335 23.6657C45.8663 22.3081 43.6455 22.8945 43.2023 23.6657C43.0071 26.0417 43.0479 29.6929 43.2343 31.5745C43.3271 32.8089 43.6767 33.3329 44.6327 33.4257L45.8967 33.5489V34.3513H36.4383V33.5489L37.1687 33.4257C38.0839 33.3329 38.4031 32.8097 38.4647 31.5745C38.6911 29.5689 38.7527 25.3625 38.4647 23.0481C38.4031 21.7217 38.0839 21.2273 37.1687 21.1041L36.4383 21.0113V20.4561L43.1951 19.1601L43.1023 22.6161C44.6863 19.0369 47.8335 18.6049 49.5407 19.5617L47.9335 23.6657ZM25.7599 26.9777C25.7599 30.7521 26.7783 33.8377 28.8351 33.8377C31.0567 33.8377 31.6943 30.8137 31.6943 26.9777C31.6943 23.1417 30.7071 20.1489 28.6191 20.1489C26.3791 20.1489 25.7599 23.0801 25.7599 26.9777ZM36.4767 26.9161C36.4767 31.2457 33.6175 34.7561 28.5167 34.7561C23.4975 34.7561 20.9679 31.4137 20.9679 27.0321C20.9679 22.7329 23.8271 19.1537 28.9279 19.1537C33.9471 19.1537 36.4767 22.5169 36.4767 26.9081M23.3407 19.4617L22.3007 19.7705C21.4159 16.7361 19.8527 15.0089 17.1583 15.0089H13.6407C13.4455 17.0249 13.3527 20.1409 13.4455 23.5049L15.7895 23.3817C17.3735 23.3817 18.0415 22.2401 18.4295 20.5817H19.3143V27.5961H18.4143C18.0335 25.9001 17.3743 24.7481 15.7743 24.6545L13.4303 24.6225C13.4303 27.1217 13.4623 29.2609 13.6255 30.5569C13.7799 32.4081 14.2943 33.2513 15.6519 33.4265L16.9271 33.5497V34.3521H5.44629V33.5497L6.40309 33.4265C7.72949 33.2425 8.27509 32.4081 8.42949 30.5569C8.68549 27.5329 8.74949 21.0745 8.42949 17.4849C8.27509 15.5649 7.73029 14.8009 6.40309 14.6465L5.44629 14.4921V13.6601H23.3183L23.3407 19.4617Z" fill="#33629A"/>
</svg>
