<svg width="153" height="48" viewBox="0 0 153 48" fill="none" xmlns="http://www.w3.org/2000/svg">
<path d="M33.871 0.974313C34.9385 0.974313 36.0112 0.974313 37.0832 0.96691C37.0713 4.80244 37.1217 8.63871 37.0595 12.4742C37.0321 14.9498 35.9875 17.5883 33.7185 18.8164C31.1541 20.1223 27.9026 20.1149 25.3885 18.6958C23.2483 17.4432 22.2082 14.8676 22.2659 12.4661C22.2778 8.63427 22.2696 4.80244 22.2741 0.970612H25.3915C25.3997 4.28793 25.3841 7.60154 25.3952 10.9189C25.45 12.4431 25.4537 14.1022 26.3702 15.4014C27.6021 17.0975 30.1865 17.2574 31.9225 16.3024C33.4934 15.3548 33.8288 13.3789 33.8599 11.691C33.8865 8.11975 33.8628 4.54555 33.871 0.974313ZM47.7873 1.04464C50.4879 0.24215 53.5017 0.729272 55.907 2.16769C55.8921 3.28999 55.8921 4.4086 55.8921 5.52794C53.8733 4.0229 51.1875 2.91614 48.6808 3.79266C47.597 4.11691 46.8878 5.42134 47.4097 6.47109C47.8383 7.47643 49.0043 7.76885 49.9268 8.14344C51.9145 8.93483 54.2065 9.35977 55.6804 11.0395C57.5749 13.3278 57.0951 17.4017 54.3197 18.7935C51.1971 20.4111 47.295 19.8965 44.3012 18.2124C44.2975 17.0582 44.2975 15.9085 44.2856 14.7544C46.5391 16.4897 49.6654 17.5187 52.4253 16.4623C53.9303 15.9167 54.1213 13.5751 52.7569 12.7667C50.6397 11.4844 48.0397 11.2231 46.009 9.76916C44.2242 8.48546 43.6978 5.94103 44.4389 3.93702C44.9919 2.48306 46.3296 1.47328 47.7873 1.04464ZM76.7688 0.693737C81.0174 4.59219 85.1498 8.62316 89.3207 12.6068V0.970612H92.4389V19.7914C88.1858 15.7523 84.0504 11.5933 79.7737 7.57637V19.3806C78.7647 19.388 77.7586 19.388 76.7532 19.3917C76.7584 13.1605 76.7273 6.93082 76.7688 0.693737ZM100.63 0.96691C104.393 0.96691 108.15 0.986158 111.908 0.955065C111.931 1.90266 111.931 2.84951 111.931 3.7971C109.234 3.7971 106.54 3.79266 103.843 3.7971V8.17454C106.248 8.18268 108.649 8.17454 111.055 8.18268V11.0047C108.649 11.0082 106.245 11.0082 103.843 11.0047C103.843 12.8555 103.843 14.7122 103.851 16.5637C106.54 16.5518 109.234 16.5637 111.92 16.5555C111.924 17.5305 111.927 18.5085 111.927 19.4835H100.623C100.63 13.3123 100.619 7.14181 100.63 0.96691ZM121.069 1.69167C123.992 6.96182e-05 127.727 0.518284 130.596 2.07811C130.651 3.2241 130.651 4.37306 130.647 5.5198C128.565 3.96071 125.761 2.84581 123.205 3.86743C121.755 4.38565 121.587 6.57251 122.905 7.32836C125.052 8.56024 127.676 8.80898 129.684 10.3222C132.381 12.3336 132.182 17.2026 129.099 18.7617C125.976 20.3992 122.036 19.9158 119.049 18.185C119.049 17.0464 119.049 15.9085 119.03 14.7699C121.205 16.3246 123.973 17.3817 126.655 16.657C127.645 16.4075 128.553 15.5184 128.413 14.4272C128.433 13.5928 127.848 12.8599 127.115 12.5172C125.009 11.4252 122.525 11.1173 120.616 9.64034C118.125 7.71036 118.29 3.28629 121.069 1.69167ZM139.78 1.7546C142.68 6.96182e-05 146.477 0.471645 149.342 2.07367C149.354 3.20856 149.354 4.33901 149.362 5.47316C147.299 3.91407 144.485 2.85765 141.963 3.88668C140.557 4.43229 140.396 6.55697 141.682 7.32836C143.881 8.60761 146.617 8.80898 148.629 10.4436C150.36 11.808 150.706 14.3376 150.035 16.3335C149.408 18.1102 147.618 19.1466 145.86 19.5257C143.162 20.0831 140.282 19.5841 137.885 18.236C137.846 17.0782 137.846 15.9204 137.842 14.7625C140.11 16.4467 143.202 17.5261 145.958 16.4652C147.458 15.9196 147.689 13.6195 146.336 12.7852C144.16 11.4245 141.416 11.2305 139.377 9.61591C136.973 7.68741 137.086 3.37735 139.78 1.7546ZM2.29395 0.970612C5.5624 1.16161 8.9567 0.490153 12.1193 1.52066C15.6313 2.64667 16.1303 8.13974 12.9262 9.92462C15.846 11.1335 16.516 15.2733 14.5127 17.5653C13.2808 19.0311 11.2694 19.4205 9.44901 19.4753C7.063 19.5146 4.68143 19.4753 2.29543 19.4872V0.970612M5.41804 3.8008C5.41409 5.42257 5.41409 7.04409 5.41804 8.66536C7.09409 8.58392 8.83307 8.8993 10.4699 8.42772C12.4465 7.85472 12.4621 4.59959 10.4973 4.00735C8.84048 3.58611 7.10594 3.87483 5.41804 3.8008ZM5.41804 11.3986C5.41064 13.1524 5.41434 14.9069 5.41804 16.6547C7.34284 16.5185 9.40977 17.033 11.2302 16.2261C13.0351 15.3451 12.8714 12.3432 10.9807 11.6688C9.18768 11.1099 7.26584 11.5207 5.41804 11.3986ZM64.764 0.970612H67.8851V19.4872H64.764V0.970612ZM51.9855 29.7197C54.8972 27.8756 58.7801 28.3871 61.6569 30.0513C61.6414 31.1662 61.6414 32.2811 61.6451 33.3953C59.5404 31.8562 56.648 30.6673 54.1139 31.8481C52.8628 32.4447 52.6992 34.3037 53.8252 35.1106C56.1335 36.5764 59.2013 36.6467 61.1927 38.6507C62.5253 39.9093 62.7474 41.917 62.4054 43.6323C62.0078 45.3476 60.5109 46.6261 58.8615 47.1117C55.9743 48.0001 52.734 47.5211 50.1377 46.0123C50.1459 44.8701 50.1496 43.7285 50.1377 42.5862C52.3328 44.2349 55.3147 45.3187 58.0124 44.3518C59.6411 43.9151 59.9653 41.4128 58.4914 40.594C56.3126 39.2334 53.5409 39.0623 51.5369 37.3781C49.2649 35.4578 49.413 31.3254 51.9855 29.7197ZM14.6726 28.9401H17.7871C17.7945 35.0447 17.7957 41.1517 17.7908 47.2612H14.6726V28.9401ZM26.6552 28.5115C30.8032 32.4714 34.9415 36.4476 39.1257 40.3697C39.1412 36.5261 39.1294 32.6861 39.1331 28.8469C40.1695 28.8424 41.2091 28.8409 42.252 28.8424C42.2594 35.0913 42.2439 41.3358 42.2594 47.5848C38.03 43.576 33.8828 39.4769 29.6853 35.4326C29.6653 39.374 29.6853 43.3184 29.6771 47.2635H26.656C26.652 41.0108 26.6518 34.7602 26.6552 28.5115ZM70.5132 28.9401H73.6321V47.2612H70.5132V28.9401ZM82.6017 28.9401C85.1123 28.9401 87.6254 28.9374 90.1409 28.932C92.9978 28.8972 95.9486 30.3593 97.3449 32.9126C98.8455 35.594 98.9425 38.9269 98.0111 41.8155C97.0132 44.8508 94.0424 46.9977 90.8775 47.2028C88.1214 47.3434 85.3615 47.2228 82.6017 47.2612V28.9401ZM85.8139 31.7659V44.4311C88.0474 44.3496 90.4526 44.7746 92.5299 43.73C94.5287 42.7002 95.4423 40.3616 95.3838 38.2095C95.4652 36.0345 94.6975 33.5944 92.6943 32.4795C90.5925 31.3062 88.1021 31.9147 85.8139 31.7659ZM105.012 28.9401C108.746 28.9367 112.482 28.9367 116.22 28.9401C116.22 29.8833 116.215 30.8264 116.215 31.7703C113.519 31.7624 110.824 31.7624 108.13 31.7703V36.05C110.532 36.0545 112.936 36.056 115.342 36.0545V38.7833C112.937 38.7833 110.53 38.7788 108.13 38.7833V44.4273C110.824 44.4355 113.522 44.4273 116.22 44.4318V47.2575H105.012V28.9401ZM125.384 28.9364C127.914 28.9594 130.444 28.9127 132.97 28.952C135.117 29.006 137.387 30.2423 138.004 32.4092C138.558 34.2926 138.425 36.5261 137.216 38.1355C136.476 39.0979 135.275 39.4614 134.153 39.7693C136.343 42.2439 138.517 44.7363 140.674 47.2464C139.44 47.2701 138.211 47.2701 136.987 47.2464C134.897 44.7635 132.767 42.3153 130.668 39.8478C129.974 39.8523 129.284 39.8523 128.595 39.8523C128.587 42.3197 128.591 44.7871 128.591 47.2553C127.519 47.2588 126.447 47.2588 125.375 47.2553V28.9305M128.591 31.6696C128.584 33.4864 128.587 35.3031 128.591 37.119C130.256 37.0258 131.996 37.3804 133.608 36.8622C135.6 36.0626 135.643 32.8645 133.682 32.0124C132.07 31.3957 130.288 31.7585 128.6 31.6726" fill="#185F7D"/>
</svg>
