<svg width="97" height="48" viewBox="0 0 97 48" fill="none" xmlns="http://www.w3.org/2000/svg">
<path d="M55.3363 18.7544H52.4418L52.0803 20.1408L51.7187 18.7544H51.0547C50.9275 18.7561 50.8012 18.7324 50.6834 18.6845C50.5656 18.6366 50.4585 18.5656 50.3686 18.4757C50.2787 18.3857 50.2077 18.2787 50.1598 18.1609C50.1119 18.043 50.0881 17.9168 50.0899 17.7896C50.0881 17.6624 50.1119 17.5362 50.1598 17.4184C50.2077 17.3006 50.2787 17.1935 50.3686 17.1036C50.4585 17.0136 50.5656 16.9426 50.6834 16.8948C50.8012 16.8469 50.9275 16.8231 51.0547 16.8248H55.3347C55.4618 16.8231 55.5881 16.8469 55.7059 16.8948C55.8237 16.9426 55.9308 17.0136 56.0207 17.1036C56.1106 17.1935 56.1816 17.3006 56.2295 17.4184C56.2774 17.5362 56.3012 17.6624 56.2994 17.7896C56.3012 17.9168 56.2774 18.043 56.2295 18.1609C56.1816 18.2787 56.1106 18.3857 56.0207 18.4757C55.9308 18.5656 55.8237 18.6366 55.7059 18.6845C55.5881 18.7324 55.4618 18.7561 55.3347 18.7544M55.3347 16.0344H51.0547C50.5914 16.0355 50.1474 16.22 49.8198 16.5476C49.4922 16.8752 49.3077 17.3192 49.3067 17.7824C49.3077 18.2457 49.4922 18.6897 49.8198 19.0173C50.1474 19.3449 50.5914 19.5294 51.0547 19.5304H51.2355L52.0795 21.7008L52.9235 19.5304H55.4035C55.8667 19.5294 56.3107 19.3449 56.6383 19.0173C56.9659 18.6897 57.1504 18.2457 57.1515 17.7824C57.0914 16.8176 56.3074 16.0344 55.3434 16.0344M87.2819 18.272H89.8139V21.2264H91.8634V22.9064H89.8139V26.48C89.8139 27.0832 89.9947 27.264 90.6579 27.264C91.0803 27.264 91.5018 27.264 91.8634 27.204V28.884C91.3811 28.944 90.4771 29.004 89.8738 29.004C87.4626 29.004 87.2819 28.1 87.2819 26.7128V22.8544H85.7139V21.2264H87.2819V18.272ZM23.3219 24.5424C23.3219 23.4568 22.7795 22.9744 21.6419 22.9744C20.5043 22.9744 19.4715 23.5776 19.4715 25.2048V28.8824H16.9395V21.2264H19.3507V22.32C19.8331 21.656 20.9787 20.9936 22.4867 20.9936C23.8131 20.9936 25.7427 21.476 25.7427 23.7672V28.892H23.2019V24.56L23.3219 24.5424ZM32.0043 27.0224C33.0899 27.0224 34.4155 26.6608 34.4155 24.912C34.4155 23.1632 33.0891 22.8016 32.0043 22.8016C30.9195 22.8016 29.5931 23.1632 29.5931 24.912C29.5931 26.6608 30.9195 27.0224 32.0043 27.0224ZM34.5363 21.2344H36.9475V28.288C36.9475 30.9408 35.2675 31.9656 32.0643 31.9656C30.1955 31.9656 27.6027 31.7256 27.3619 29.4336H30.0147C30.1955 30.0368 30.6787 30.3984 32.1251 30.3984C33.3915 30.3984 34.4163 30.0968 34.4163 28.228V27.6248C33.6931 28.4088 32.6083 28.7704 31.3419 28.7704C28.3275 28.7704 27.0011 26.9016 27.0011 24.972C27.0011 22.8616 28.3275 21.1736 31.5835 21.1736C32.6691 21.1736 33.8139 21.4752 34.4771 22.3192V21.2336L34.5363 21.2344ZM38.4563 18.5144H40.9883V20.2624H38.4563V18.5144ZM38.4563 21.2344H40.9883V28.8904H38.4563V21.2344ZM78.7218 26.532C78.8418 27.196 79.2643 27.6176 80.5907 27.6176C81.7363 27.6176 82.3986 27.316 82.3986 26.7736C82.3986 26.3512 82.1587 26.1704 80.9586 25.9896L78.6675 25.688C77.0395 25.448 76.1355 24.9648 76.1355 23.5176C76.1355 21.468 78.2458 20.9256 80.2954 20.9256C83.7915 20.9256 84.6362 22.0712 84.817 23.5176H82.0434C81.9234 22.7336 81.0787 22.4936 80.3634 22.4936C79.6994 22.4936 78.7355 22.5536 78.7355 23.2776C78.7355 23.6392 78.9163 23.8808 80.0019 24.0008L81.7498 24.1816C84.2819 24.4216 85.1258 25.2056 85.1258 26.5336C85.1258 28.8248 82.5938 29.1256 80.4235 29.1256C77.5299 29.1256 76.0827 28.2816 75.9019 26.4728H78.7355L78.7218 26.532ZM49.6018 24.24C49.6018 23.8176 49.0595 22.492 47.2499 22.492C45.2603 22.492 44.8387 23.9992 44.8387 24.172H49.6018V24.24ZM52.0819 26.592C51.3587 28.4 49.6018 29.184 47.3187 29.184C44.3043 29.184 42.2547 27.9784 42.2547 25.084C42.2547 22.1896 44.3043 20.984 47.3187 20.984C50.6347 20.984 52.2019 22.664 52.2019 25.5664V25.8064H44.8467C44.8467 26.5296 45.5699 27.6752 47.3267 27.6752C48.3507 27.6752 49.0747 27.3136 49.4371 26.6512H52.0819V26.592Z" fill="#309F3B"/>
<path d="M55.6377 26.5321C55.7577 27.1961 56.1801 27.6177 57.5065 27.6177C58.6521 27.6177 59.3145 27.3161 59.3145 26.7737C59.3145 26.3513 59.0745 26.1705 57.8745 25.9897L55.5865 25.6801C53.9585 25.4401 53.0545 24.9569 53.0545 23.5097C53.0545 21.4601 55.1649 20.9177 57.2145 20.9177C60.7105 20.9177 61.5553 22.0633 61.7361 23.5097H58.9617C58.8417 22.7257 57.9969 22.4857 57.2817 22.4857C56.6177 22.4857 55.6537 22.5457 55.6537 23.2697C55.6537 23.6313 55.8345 23.8729 56.9201 23.9929L58.7281 24.2329C61.2601 24.4729 62.1041 25.2569 62.1041 26.5849C62.1041 28.8761 59.5721 29.1769 57.4017 29.1769C54.5081 29.1769 53.0609 28.3329 52.8801 26.5241L55.6377 26.5321ZM72.0977 21.2265H74.6297V28.8825H72.0977V21.2265ZM72.0977 18.5065H74.6297V20.2545H72.0977V18.5065ZM67.6353 17.3601H70.1674V28.9361H67.6353V17.3601ZM10.6017 20.9257L9.03375 24.9657H12.2289L10.6017 20.9257ZM12.9537 26.7657H8.23375L7.38975 28.8761H4.45215L8.91375 18.7481H12.2297L16.6897 28.9441H13.7353L12.9537 26.7657Z" fill="#309F3B"/>
</svg>
