<svg width="49" height="48" viewBox="0 0 49 48" fill="none" xmlns="http://www.w3.org/2000/svg">
<path d="M36.6139 14.3224C38.3404 15.75 43.0762 19.6658 42.3046 22.4148C41.9477 23.6494 40.5298 24.0448 39.4784 24.4305C37.0573 25.3083 34.5689 26.0027 32.0418 26.5139C29.997 26.9286 25.6277 27.8352 26.4378 24.2182C26.756 22.8196 27.8846 21.6332 28.7914 20.5819C30.6529 18.3925 32.5531 16.0775 34.8004 14.2835C34.9837 14.1387 35.2055 14.1002 35.3985 14.1292C35.7747 13.9752 36.228 13.9946 36.6139 14.3224Z" fill="#C1272D"/>
<path d="M34.0679 43.1811C32.5536 41.9561 31.4829 40.0367 30.557 38.3585C29.6502 36.7382 28.2228 34.5967 27.9816 32.7161C27.4898 28.8482 33.0936 31.1729 34.7045 31.7323C36.8456 32.4846 42.5847 33.3141 41.9481 36.6609C41.4176 39.3905 38.1285 42.7181 35.3797 43.1426C35.3509 43.1523 35.3122 43.1426 35.2737 43.1426C35.264 43.1523 35.2543 43.1619 35.2449 43.1714C35.1676 43.2099 35.0809 43.2583 34.994 43.2968C34.6659 43.4707 34.3478 43.4031 34.0679 43.1811Z" fill="#C1272D"/>
<path d="M21.5388 33.2271C24.5867 31.9636 24.8664 35.3683 24.847 37.4325C24.8182 39.8921 24.741 42.3611 24.5577 44.811C24.4901 45.8045 24.5289 47.0006 23.5836 47.6275C22.4165 48.3992 20.1692 47.7914 18.9634 47.4154C18.9249 47.396 18.8862 47.3769 18.8477 47.3672C16.3111 46.9236 13.2149 45.7565 12.9159 43.4127C12.8869 43.1427 12.9931 42.9015 13.1571 42.7182C13.2343 42.5734 13.3113 42.4386 13.3982 42.3131C13.7745 41.7923 14.2084 41.3293 14.6425 40.8567C15.3755 39.7669 16.1665 38.7155 17.0055 37.7027C18.2208 36.2366 19.7158 33.9794 21.5388 33.2271Z" fill="#C1272D"/>
<path d="M21.9823 22.6558C17.5358 19.0003 13.205 13.3385 10.9672 8.10118C9.25995 4.11761 13.6004 1.68706 16.9472 0.58753C21.4613 -0.897943 23.2553 0.394559 23.7085 4.90864C24.0848 8.79562 24.2584 12.7116 24.2294 16.618C24.2197 18.2674 24.6826 20.9294 23.7182 22.4149C23.8725 23.0226 22.9562 23.4565 22.4354 23.0418C22.3582 22.9839 22.2811 22.9067 22.1942 22.8391C22.1172 22.7909 22.0497 22.7331 21.9823 22.6558Z" fill="#C1272D"/>
<path d="M21.5002 28.3175C21.8571 29.8994 20.7382 30.536 19.4266 31.134C17.0924 32.1854 14.6425 33.0246 12.1829 33.719C10.7553 34.1144 8.56592 35.0597 7.18671 34.0084C6.14505 33.2176 6.0775 31.5682 5.98112 30.372C5.769 27.7003 6.17409 21.3247 9.87778 21.0547C11.6911 20.9293 13.9577 22.5497 15.4432 23.3986C17.4205 24.5368 19.5425 25.8388 21.0181 27.6233C21.2397 27.7485 21.423 27.9703 21.5002 28.3175Z" fill="#C1272D"/>
</svg>
